<svg width="14" height="18" viewBox="0 0 14 18" fill="none" xmlns="http://www.w3.org/2000/svg">
<path fill-rule="evenodd" clip-rule="evenodd" d="M0.0545407 15.017C-0.226368 16.3169 0.605513 17.5997 1.9126 17.8821C1.93375 17.8867 1.95489 17.891 1.97602 17.895C2.08941 17.9299 2.20705 17.9483 2.32767 17.9483H11.4611C12.3859 17.9483 13.1356 16.8667 13.1356 15.5324C13.1356 14.1981 12.3859 13.1164 11.4611 13.1164H5.41965L7.56226 3.20134C7.84317 1.90142 7.01129 0.618646 5.7042 0.33619C4.39712 0.0537336 3.10979 0.878556 2.82888 2.17848L0.0545407 15.017ZM4.06845 13.1164L6.27134 2.92238C6.39903 2.33151 6.0209 1.74843 5.42677 1.62004C4.83264 1.49165 4.24749 1.86657 4.11981 2.45744L1.78882 13.2443C1.95792 13.1614 2.13916 13.1164 2.32767 13.1164H2.49204L4.76527 2.59692C4.81634 2.36057 5.0504 2.21061 5.28805 2.26196C5.5257 2.31332 5.67695 2.54655 5.62588 2.7829L3.39284 13.1164H4.06845ZM3.10808 14.4342H3.78368L3.64129 15.0931H2.96569L3.10808 14.4342ZM2.20417 14.4486C1.84255 14.5337 1.56655 14.9866 1.56655 15.5324C1.56655 16.0062 1.77455 16.41 2.066 16.5639C2.10617 16.5776 2.14755 16.5891 2.19003 16.5983C2.70994 16.7106 3.22297 16.4376 3.4286 15.9716H2.32767C2.24019 15.9716 2.16133 15.9184 2.10579 15.8332C2.0067 15.7315 1.9588 15.584 1.99092 15.4354L2.20417 14.4486ZM4.57685 16.6305C4.67074 16.4478 4.74249 16.25 4.78792 16.0398L4.80265 15.9716H11.4611C11.6293 15.9716 11.7656 15.775 11.7656 15.5324C11.7656 15.2898 11.6293 15.0931 11.4611 15.0931H4.9925L5.13488 14.4342H11.4611C11.8815 14.4342 12.2222 14.9259 12.2222 15.5324C12.2222 16.1389 11.8815 16.6305 11.4611 16.6305H4.57685Z" fill="url(#paint0_linear_114_137)"/>
<defs>
<linearGradient id="paint0_linear_114_137" x1="0.0492369" y1="0.231426" x2="13.0873" y2="17.9838" gradientUnits="userSpaceOnUse">
<stop offset="0.244792" stop-color="#3C44FA"/>
<stop offset="0.854167" stop-color="#F05600"/>
</linearGradient>
</defs>
</svg>
