<svg width="24" height="33" viewBox="0 0 24 33" fill="none" xmlns="http://www.w3.org/2000/svg">
<path fill-rule="evenodd" clip-rule="evenodd" d="M0.0980787 27.0095C-0.407069 29.3471 1.08887 31.6539 3.43936 32.1618C3.47754 32.1701 3.5157 32.1778 3.55385 32.185C3.75763 32.2478 3.96905 32.2808 4.18583 32.2808H20.6102C22.2732 32.2808 23.6213 30.3357 23.6213 27.9363C23.6213 25.5369 22.2732 23.5918 20.6102 23.5918H9.74598L13.599 5.76187C14.1041 3.42426 12.6082 1.11749 10.2577 0.609562C7.90719 0.101631 5.59223 1.58488 5.08709 3.92249L0.0980787 27.0095ZM7.31616 23.5918L11.2775 5.26022C11.5072 4.19767 10.8272 3.14914 9.75877 2.91826C8.69037 2.68738 7.63812 3.36159 7.40851 4.42414L3.21678 23.8217C3.52087 23.6726 3.8468 23.5918 4.18583 23.5918H4.48136L8.56922 4.67496C8.66106 4.24994 9.08196 3.98026 9.50932 4.07261C9.93668 4.16496 10.2087 4.58437 10.1168 5.00939L6.10125 23.5918H7.31616ZM5.58916 25.9615H6.80407L6.54802 27.1464H5.33311L5.58916 25.9615ZM3.96368 25.9874C3.31342 26.1405 2.81713 26.9548 2.81713 27.9363C2.81713 28.7886 3.1913 29.5147 3.71556 29.7914C3.78769 29.816 3.86199 29.8366 3.93826 29.8531C4.87321 30.0551 5.79578 29.5641 6.16555 28.7262H4.18582C4.0286 28.7262 3.88687 28.6306 3.78702 28.4775C3.60866 28.2946 3.52242 28.0294 3.58021 27.762L3.96368 25.9874ZM8.23041 29.9111C8.39925 29.5826 8.52826 29.2269 8.60995 28.8489L8.63645 28.7262H20.6102C20.9126 28.7262 21.1577 28.3726 21.1577 27.9363C21.1577 27.5001 20.9126 27.1464 20.6102 27.1464H8.97785L9.23389 25.9615H20.6102C21.3661 25.9615 21.9789 26.8457 21.9789 27.9363C21.9789 29.027 21.3661 29.9111 20.6102 29.9111H8.23041Z" fill="url(#paint0_linear_107_111)"/>
<defs>
<linearGradient id="paint0_linear_107_111" x1="0.0885412" y1="0.421169" x2="23.5344" y2="32.3447" gradientUnits="userSpaceOnUse">
<stop offset="0.244792" stop-color="#3C44FA"/>
<stop offset="0.854167" stop-color="#F05600"/>
</linearGradient>
</defs>
</svg>
