<svg width="28" height="11" viewBox="0 0 28 11" fill="none" xmlns="http://www.w3.org/2000/svg">
<path d="M5.56641 7.69336V9H1.86328V7.69336H5.56641ZM2.31445 0.46875V9H0.744141V0.46875H2.31445ZM5.06836 3.97266V5.24414H1.86328V3.97266H5.06836ZM5.54297 0.46875V1.78125H1.86328V0.46875H5.54297ZM7.19531 0.46875H8.5957L10.4531 6.5625L12.293 0.46875H13.5645L11.0332 9H9.86133L7.19531 0.46875ZM6.65039 0.46875H7.96875L8.17383 6V9H6.65039V0.46875ZM12.9199 0.46875H14.2441V9H12.7207V6L12.9199 0.46875ZM19.6699 7.76953L21.6738 9.58594L20.6777 10.5059L18.7148 8.70117L19.6699 7.76953ZM21.6211 4.05469V5.41406C21.6211 6.02734 21.5488 6.56641 21.4043 7.03125C21.2637 7.49219 21.0586 7.87695 20.7891 8.18555C20.5234 8.49414 20.2051 8.72656 19.834 8.88281C19.4629 9.03906 19.0527 9.11719 18.6035 9.11719C18.1504 9.11719 17.7383 9.03906 17.3672 8.88281C17 8.72656 16.6816 8.49414 16.4121 8.18555C16.1465 7.87695 15.9395 7.49219 15.791 7.03125C15.6426 6.56641 15.5684 6.02734 15.5684 5.41406V4.05469C15.5684 3.44141 15.6406 2.9043 15.7852 2.44336C15.9297 1.98242 16.1367 1.59766 16.4062 1.28906C16.6758 0.976563 16.9941 0.742188 17.3613 0.585938C17.7324 0.429687 18.1426 0.351562 18.5918 0.351562C19.0449 0.351562 19.457 0.429687 19.8281 0.585938C20.1992 0.742188 20.5195 0.976563 20.7891 1.28906C21.0586 1.59766 21.2637 1.98242 21.4043 2.44336C21.5488 2.9043 21.6211 3.44141 21.6211 4.05469ZM20.0566 5.41406V4.04297C20.0566 3.625 20.0254 3.26562 19.9629 2.96484C19.9004 2.66406 19.8066 2.41992 19.6816 2.23242C19.5566 2.04102 19.4023 1.90039 19.2188 1.81055C19.0391 1.7207 18.8301 1.67578 18.5918 1.67578C18.3574 1.67578 18.1484 1.7207 17.9648 1.81055C17.7852 1.90039 17.6328 2.04102 17.5078 2.23242C17.3867 2.41992 17.293 2.66406 17.2266 2.96484C17.1641 3.26562 17.1328 3.625 17.1328 4.04297V5.41406C17.1328 5.83594 17.1641 6.19727 17.2266 6.49805C17.293 6.79883 17.3887 7.04688 17.5137 7.24219C17.6387 7.43359 17.791 7.57422 17.9707 7.66406C18.1543 7.75391 18.3652 7.79883 18.6035 7.79883C18.8379 7.79883 19.0449 7.75391 19.2246 7.66406C19.4082 7.57422 19.5625 7.43359 19.6875 7.24219C19.8125 7.04688 19.9043 6.79883 19.9629 6.49805C20.0254 6.19727 20.0566 5.83594 20.0566 5.41406ZM24.1465 2.66016L24.9961 4.42969L25.7637 2.66016H27.3809L25.7344 5.76562L27.4395 9H25.8164L24.9375 7.16602L24.0938 9H22.459L24.1113 5.7832L22.5176 2.66016H24.1465Z" fill="white"/>
</svg>
